<svg width="512" height="512" viewBox="0 0 512 512" fill="none" xmlns="http://www.w3.org/2000/svg">
    <rect width="512" height="512" rx="128" fill="#111827" />
    <path
        d="M256 128C197.726 128 150.857 174.869 150.857 233.143C150.857 291.417 197.726 338.286 256 338.286C314.274 338.286 361.143 291.417 361.143 233.143C361.143 174.869 314.274 128 256 128ZM256 304C217.34 304 185.143 271.803 185.143 233.143C185.143 194.483 217.34 162.286 256 162.286C294.66 162.286 326.857 194.483 326.857 233.143C326.857 271.803 294.66 304 256 304Z"
        fill="white" />
    <circle cx="256" cy="233" r="40" fill="white" />
    <rect x="150" y="350" width="212" height="34" rx="17" fill="white" />
</svg>